<?xml version="1.0" encoding="UTF-8"?>
<!-- Generated by Pixelmator Pro 3.7.1 -->
<svg width="800" height="800" viewBox="0 0 800 800" xmlns="http://www.w3.org/2000/svg">
    <path id="Circle" fill="#262b37" fill-rule="evenodd" stroke="none" d="M 800 400 C 800 179.086121 620.913879 0 400 0 C 179.086105 0 0 179.086121 0 400 C 0 620.913879 179.086105 800 400 800 C 620.913879 800 800 620.913879 800 400 Z"/>
    <g id="Group">
        <path id="Path" fill="#6ba0e5" stroke="none" d="M 190.315506 132.617676 C 199.127563 123.731445 211.499359 117.937805 234.862 114.770264 C 258.911652 111.509399 290.786255 111.458374 336.488403 111.458374 L 463.84491 111.458374 C 509.546997 111.458374 541.422241 111.509399 565.472168 114.770264 C 588.835388 117.937805 601.205139 123.731445 610.017273 132.617676 C 618.829224 141.50415 624.574158 153.980164 627.71637 177.540161 C 630.947998 201.792969 631 233.936768 631 280.024963 L 631 573.125 L 268.187134 573.125 C 236.920181 573.125 225.989059 573.289429 217.612411 575.089966 C 202.798965 578.275452 189.921066 585.102356 180.531921 594.324097 C 177.365463 597.434631 175.782516 598.989868 172.131042 608.895508 C 170.035934 614.579773 169.333328 618.38855 169.333328 622.18573 L 169.333328 280.024963 C 169.333328 233.936768 169.384109 201.792969 172.617508 177.540161 C 175.758575 153.980164 181.503738 141.50415 190.315506 132.617676 Z"/>
        <path id="path1" fill="#c4d8f5" fill-rule="evenodd" stroke="none" d="M 591.469788 680.462463 C 591.469788 680.462463 616.113586 666.638062 620.901001 657.090576 C 627.26001 644.408997 629.996948 628.604675 630.422913 606.018738 C 630.848816 583.4328 629.557251 580.915649 629.557251 580.915649 L 227.041656 573.125 L 240.026031 664.881226 L 591.469788 680.462463 Z"/>
        <path id="path2" fill="#1d62dd" stroke="none" d="M 631 573.125 L 268.187134 573.125 C 236.920181 573.125 225.989059 573.289429 217.612411 575.089966 C 202.798965 578.275452 189.921066 585.102356 180.531921 594.324097 C 177.365463 597.434631 175.782516 598.989868 172.131042 608.895508 C 168.479538 618.804016 169.05777 623.008057 170.214249 631.4104 C 170.418549 632.893494 170.638123 634.34198 170.875015 635.755859 C 174.028198 654.574524 179.795563 664.540771 188.641373 671.638855 C 197.487213 678.737 209.906891 683.365234 233.359558 685.895752 C 257.501831 688.501221 289.49939 688.541626 335.377777 688.541626 L 463.224548 688.541626 C 509.102661 688.541626 541.101929 688.501221 565.244202 685.895752 C 588.696838 683.365234 601.115662 678.737 609.962402 671.638855 C 615.721741 667.016418 620.176758 661.17926 623.45459 652.473938 L 284.749969 652.473938 C 272.798309 652.473938 263.109375 642.784729 263.109375 630.833313 C 263.109375 618.881958 272.798309 609.192688 284.749969 609.192688 L 630.290161 609.192688 C 630.786438 598.712891 630.947998 586.804749 631 573.125 Z"/>
        <path id="path3" fill="#1d62dd" stroke="none" d="M 263.109375 255.729187 C 263.109375 243.777527 272.798309 234.088562 284.749969 234.088562 L 515.583313 234.088562 C 527.534729 234.088562 537.223938 243.777527 537.223938 255.729187 C 537.223938 267.680847 527.534729 277.369812 515.583313 277.369812 L 284.749969 277.369812 C 272.798309 277.369812 263.109375 267.680847 263.109375 255.729187 Z"/>
        <path id="path4" fill="#1d62dd" stroke="none" d="M 284.749969 335.078125 C 272.798309 335.078125 263.109375 344.767365 263.109375 356.71875 C 263.109375 368.670166 272.798309 378.359375 284.749969 378.359375 L 429.020813 378.359375 C 440.972198 378.359375 450.661438 368.670166 450.661438 356.71875 C 450.661438 344.767365 440.972198 335.078125 429.020813 335.078125 L 284.749969 335.078125 Z"/>
    </g>
    <g id="Group-copy">
        <path id="path5" fill="none" stroke="#5e677c" stroke-width="35.222221" stroke-linecap="round" stroke-linejoin="round" d="M 646.555542 646.555542 L 717 717"/>
        <path id="path6" fill="#9bbfee" stroke="#5e677c" stroke-width="35.222221" d="M 681.777771 540.888916 C 681.777771 618.700073 618.700012 681.777771 540.888855 681.777771 C 463.078064 681.777771 400 618.700073 400 540.888916 C 400 463.078064 463.078064 400 540.888855 400 C 618.700012 400 681.777771 463.078064 681.777771 540.888916 Z"/>
    </g>
</svg>
